<svg aria-hidden="true" style="position: absolute; width: 0; height: 0; overflow: hidden;" version="1.1" xmlns="http://www.w3.org/2000/svg" xmlns:xlink="http://www.w3.org/1999/xlink">
<defs>
<symbol id="icon-Group-159-1" viewBox="0 0 64 64">
<path fill="#ff6e30" style="fill: var(--color1, #ff6e30)" d="M13.474 0h37.053c7.441 0 13.474 6.032 13.474 13.474v37.053c0 7.441-6.032 13.474-13.474 13.474h-37.053c-7.441 0-13.474-6.032-13.474-13.474v-37.053c0-7.441 6.032-13.474 13.474-13.474z"></path>
<path fill="#fff" style="fill: var(--color2, #fff)" d="M33.624 20.945c-0.56 0-1.104 0.069-1.624 0.199 0.335-3.021 1.541-5.777 3.362-8.016 7.243 0.858 12.862 7.023 12.862 14.498v10.655c-0.291 0.016-0.584 0.025-0.879 0.025-5.795 0-10.847-3.193-13.488-7.919h6.448v-2.761c0-3.69-2.991-6.681-6.681-6.681z"></path>
<path fill="#fff" style="fill: var(--color2, #fff)" d="M15.59 28.549c0-8.97 7.271-16.241 16.241-16.241 4.485 0 8.545 1.818 11.484 4.757-2.709-2.709-6.372-4.466-10.441-4.724-2.737 3.029-4.404 7.044-4.404 11.448 0 0.329 0.009 0.655 0.028 0.979-1.047 0.923-1.708 2.275-1.708 3.781v1.12l2.719 0c2.397 6.536 8.675 11.201 16.042 11.201 0.856 0 1.698-0.063 2.52-0.185v6.905h-11.2v-6.72h-10.081v6.72h-11.201v-19.041z"></path>
</symbol>
<symbol id="icon-Group-159" viewBox="0 0 58 64">
<path fill="#fff" style="fill: var(--color2, #fff)" d="M31.897 15.813c-0.967 0-1.907 0.119-2.806 0.344 0.578-5.218 2.661-9.979 5.807-13.845 12.511 1.483 22.216 12.13 22.216 25.041v18.404c-0.502 0.028-1.009 0.042-1.519 0.042-10.009 0-18.735-5.515-23.297-13.678h11.138v-4.769c0-6.374-5.167-11.54-11.54-11.54z"></path>
<path fill="#fff" style="fill: var(--color2, #fff)" d="M0.746 28.947c0-15.493 12.56-28.053 28.053-28.053 7.746 0 14.76 3.14 19.836 8.216-4.68-4.68-11.005-7.714-18.034-8.159-4.728 5.232-7.606 12.166-7.606 19.773 0 0.567 0.016 1.131 0.048 1.691-1.809 1.595-2.95 3.93-2.95 6.532v1.935l4.697 0c4.14 11.29 14.984 19.346 27.708 19.346 1.479 0 2.933-0.109 4.353-0.319v11.927h-19.346v-11.608h-17.412v11.608h-19.347v-32.889z"></path>
</symbol>
<symbol id="icon-Illustration" viewBox="0 0 66 64">
<path fill="#000" style="fill: var(--color3, #000)" opacity="0.4" d="M37.795 28.771c-0.814-0.469-1.398-0.479-1.753-0.038-0.364 0.441-0.536 1.188-0.536 2.232v5.652c0 1.073-0.096 1.964-0.297 2.672-0.201 0.738-0.536 1.255-0.996 1.561-0.45 0.316-1.063 0.393-1.839 0.249-0.757-0.134-1.705-0.536-2.835-1.188l-0.536-0.316v-4.454l0.68 0.393c0.814 0.469 1.35 0.527 1.619 0.192 0.287-0.335 0.431-1.025 0.431-2.069v-4.981c0-1.303 0.125-2.328 0.383-3.075 0.249-0.757 0.757-1.236 1.513-1.446-0.757-1.082-1.264-2.155-1.513-3.199s-0.373-2.213-0.373-3.515v-4.981c0-1.044-0.144-1.906-0.431-2.567-0.268-0.651-0.814-1.216-1.619-1.686l-0.68-0.393v-4.454l0.536 0.316c1.13 0.651 2.079 1.351 2.835 2.088 0.776 0.747 1.389 1.533 1.839 2.376 0.469 0.843 0.804 1.743 0.996 2.711 0.201 0.939 0.297 1.944 0.297 3.017v5.652c0 1.044 0.182 2.002 0.536 2.855 0.364 0.852 0.948 1.523 1.753 1.983l-0.010 4.416z"></path>
<path fill="#000" style="fill: var(--color3, #000)" opacity="0.4" d="M17.279 12.401c0.814 0.469 1.398 0.479 1.753 0.038 0.364-0.441 0.536-1.188 0.536-2.232v-5.652c0-1.073 0.096-1.964 0.297-2.672 0.201-0.738 0.527-1.255 0.977-1.571 0.469-0.306 1.082-0.383 1.839-0.249 0.776 0.144 1.734 0.546 2.864 1.207l0.536 0.316v4.454l-0.68-0.393c-0.814-0.469-1.36-0.536-1.647-0.201-0.268 0.345-0.402 1.035-0.402 2.088v4.981c0 1.293-0.125 2.328-0.383 3.075-0.249 0.757-0.757 1.236-1.513 1.446 0.757 1.082 1.264 2.155 1.513 3.199s0.373 2.213 0.373 3.515v4.981c0 1.044 0.134 1.897 0.402 2.558 0.287 0.661 0.833 1.236 1.647 1.695l0.68 0.393v4.454l-0.536-0.316c-1.13-0.651-2.088-1.36-2.864-2.098-0.757-0.737-1.37-1.523-1.839-2.376-0.45-0.833-0.776-1.734-0.967-2.692-0.201-0.939-0.297-1.944-0.297-3.017v-5.651c0-1.044-0.182-2.002-0.536-2.855-0.364-0.852-0.948-1.523-1.753-1.983v-4.445z"></path>
<path fill="#000" style="fill: var(--color3, #000)" opacity="0.15" d="M40.563 1.232l20.219 11.677-0.010 48.478-20.219-11.667 0.010-48.488z"></path>
<path fill="#587298" style="fill: var(--color4, #587298)" d="M36.76 7.583l16.091 9.282v4.454l-16.091-9.282v-4.454z"></path>
<path fill="#000" style="fill: var(--color3, #000)" opacity="0.2" d="M43.197 28.206l15.248 8.803v13.477l-15.248-8.803v-13.477z"></path>
<path fill="#fff" style="fill: var(--color2, #fff)" opacity="0.15" d="M43.044 17.87l15.478 8.937v1.523l-15.478-8.937v-1.523z"></path>
<path fill="#fff" style="fill: var(--color2, #fff)" opacity="0.15" d="M43.044 20.936l13.38 7.721v1.523l-13.38-7.721v-1.523z"></path>
<path fill="#fff" style="fill: var(--color2, #fff)" opacity="0.15" d="M43.044 23.963l11.36 6.552v1.523l-11.36-6.552v-1.523z"></path>
<path fill="#000" style="fill: var(--color3, #000)" opacity="0.2" d="M40.563 1.232l20.219 11.677v6.494l-20.229-11.667 0.010-6.504z"></path>
<path fill="#fff" style="fill: var(--color2, #fff)" opacity="0.2" d="M45.611 7.439c0 0.987-0.575 1.446-1.284 1.035s-1.284-1.533-1.284-2.519c0-0.987 0.575-1.446 1.284-1.034s1.284 1.542 1.284 2.519z"></path>
<path fill="#000" style="fill: var(--color3, #000)" opacity="0.15" d="M4.128 16.079l62.238 35.921-0.010 48.507-62.238-35.921 0.010-48.507z"></path>
<path fill="#ea8c4f" style="fill: var(--color5, #ea8c4f)" d="M0 28.034l16.081 9.282v4.454l-16.081-9.272v-4.464z"></path>
<path fill="#fff" style="fill: var(--color2, #fff)" opacity="0.15" d="M8.323 40.275l35.707 20.614v1.523l-35.707-20.614v-1.523z"></path>
<path fill="#fff" style="fill: var(--color2, #fff)" opacity="0.15" d="M8.323 43.341l30.803 17.778v1.523l-30.803-17.778v-1.523z"></path>
<path fill="#fff" style="fill: var(--color2, #fff)" opacity="0.15" d="M8.323 46.377l26.215 15.135v1.523l-26.215-15.135v-1.523z"></path>
<path fill="#000" style="fill: var(--color3, #000)" opacity="0.2" d="M2.481 47.891l26.139 15.087v13.477l-26.139-15.096v-13.468z"></path>
<path fill="#fff" style="fill: var(--color2, #fff)" opacity="0.15" d="M5.115 52.862l20.765 11.983v1.523l-20.765-11.983v-1.523z"></path>
<path fill="#fff" style="fill: var(--color2, #fff)" opacity="0.15" d="M5.115 55.927l16.628 9.598v1.523l-16.628-9.608v-1.513z"></path>
<path fill="#000" style="fill: var(--color3, #000)" opacity="0.2" d="M4.128 16.079l62.152 35.882v6.571l-62.152-35.873v-6.581z"></path>
<path fill="#fff" style="fill: var(--color2, #fff)" opacity="0.2" d="M10.9 23.273c0 0.987-0.575 1.446-1.283 1.035s-1.283-1.533-1.283-2.519c0-0.987 0.575-1.446 1.283-1.035s1.283 1.542 1.283 2.519z"></path>
</symbol>
<symbol id="icon-logos_google" viewBox="0 0 197 64">
<path fill="#fff" style="fill: var(--color2, #fff)" opacity="0.2" d="M190.883 39.113l5.466 3.607c-1.774 2.587-6.017 7.025-13.353 7.025-9.108 0-15.892-6.977-15.892-15.853 0-9.445 6.856-15.853 15.125-15.853 8.319 0 12.393 6.55 13.712 10.086l0.719 1.804-21.43 8.781c1.629 3.18 4.171 4.794 7.765 4.794 3.597 0 6.089-1.756 7.887-4.391zM174.080 33.394l14.311-5.886c-0.792-1.969-3.141-3.37-5.946-3.37-3.571 0-8.533 3.133-8.365 9.255z"></path>
<path fill="#fff" style="fill: var(--color2, #fff)" opacity="0.2" d="M156.771 1.878h6.903v46.419h-6.903v-46.419z"></path>
<path fill="#fff" style="fill: var(--color2, #fff)" opacity="0.2" d="M145.889 19.274h6.663v28.193c0 11.699-6.975 16.517-15.222 16.517-7.767 0-12.44-5.173-14.191-9.374l6.113-2.516c1.102 2.587 3.763 5.648 8.078 5.648 5.298 0 8.558-3.251 8.558-9.326v-2.278h-0.24c-1.582 1.898-4.603 3.607-8.438 3.607-8.006 0-15.342-6.906-15.342-15.805 0-8.947 7.336-15.924 15.342-15.924 3.811 0 6.856 1.685 8.438 3.536h0.24v-2.279zM146.368 33.94c0-5.601-3.763-9.683-8.558-9.683-4.841 0-8.917 4.082-8.917 9.683 0 5.529 4.076 9.54 8.917 9.54 4.795 0.024 8.558-4.011 8.558-9.54v0z"></path>
<path fill="#fff" style="fill: var(--color2, #fff)" opacity="0.2" d="M83.97 33.821c0 9.137-7.191 15.853-16.013 15.853s-16.013-6.739-16.013-15.853c0-9.184 7.192-15.876 16.013-15.876s16.013 6.692 16.013 15.876zM76.97 33.821c0-5.695-4.171-9.611-9.013-9.611s-9.013 3.916-9.013 9.611c0 5.648 4.171 9.611 9.013 9.611s9.013-3.963 9.013-9.611z"></path>
<path fill="#fff" style="fill: var(--color2, #fff)" opacity="0.2" d="M118.945 33.892c0 9.137-7.192 15.853-16.013 15.853s-16.013-6.716-16.013-15.853c0-9.184 7.191-15.853 16.013-15.853s16.013 6.645 16.013 15.853zM111.921 33.892c0-5.695-4.171-9.611-9.013-9.611s-9.013 3.916-9.013 9.611c0 5.648 4.171 9.611 9.013 9.611 4.866 0 9.013-3.987 9.013-9.611z"></path>
<path fill="#fff" style="fill: var(--color2, #fff)" opacity="0.2" d="M25.624 42.791c-10.044 0-17.907-8.021-17.907-17.965s7.862-17.965 17.907-17.965c5.418 0 9.373 2.112 12.297 4.817l4.818-4.77c-4.075-3.868-9.517-6.811-17.116-6.811-13.759 0-25.338 11.107-25.338 24.728s11.578 24.728 25.338 24.728c7.431 0 13.041-2.421 17.427-6.929 4.507-4.462 5.897-10.727 5.897-15.805 0-1.59-0.192-3.227-0.408-4.438h-22.916v6.597h16.325c-0.48 4.13-1.798 6.954-3.74 8.875-2.349 2.35-6.064 4.936-12.585 4.936z"></path>
</symbol>
<symbol id="icon-logos_invision-icon" viewBox="0 0 65 64">
<path fill="#f06" style="fill: var(--color6, #f06)" opacity="0.78" d="M0 4c0-2.209 1.791-4 4-4h57c2.209 0 4 1.791 4 4v55.823c0 2.209-1.791 4-4 4h-57c-2.209 0-4-1.791-4-4v-55.823z"></path>
<path fill="#fff" style="fill: var(--color2, #fff)" opacity="0.78" d="M22.118 20.538c2.056-0.029 3.701-1.684 3.681-3.703s-1.698-3.643-3.754-3.633-3.718 1.649-3.718 3.668c0.002 0.486 0.101 0.966 0.293 1.414s0.472 0.854 0.824 1.195 0.77 0.61 1.229 0.792c0.459 0.182 0.95 0.273 1.445 0.267v-0z"></path>
<path fill="#fff" style="fill: var(--color2, #fff)" opacity="0.78" d="M14.258 40.178c-0.215 0.903-0.328 1.827-0.335 2.755 0 3.229 1.783 5.374 5.574 5.374 3.143 0 5.694-1.833 7.527-4.794l-1.121 4.416h6.24l3.57-14.041c0.892-3.559 2.618-5.404 5.239-5.404 2.062 0 3.344 1.259 3.344 3.339 0.010 0.667-0.084 1.332-0.278 1.971l-1.838 6.456c-0.263 0.889-0.394 1.811-0.39 2.737 0 3.063 1.838 5.31 5.683 5.31 3.289 0 5.91-2.078 7.358-7.059l-2.452-0.932c-1.227 3.339-2.285 3.942-3.12 3.942s-1.285-0.546-1.285-1.642c0.024-0.575 0.117-1.145 0.278-1.698l1.786-6.293c0.401-1.294 0.608-2.638 0.614-3.99 0-4.708-2.899-7.163-6.412-7.163-3.289 0-6.633 2.913-8.304 5.979l1.225-5.504h-9.529l-1.339 4.851h4.462l-2.745 10.784c-2.158 4.708-6.12 4.784-6.617 4.675-0.817-0.181-1.337-0.485-1.337-1.532 0.024-0.847 0.155-1.689 0.39-2.504l4.181-16.285h-10.587l-1.336 4.851h4.402l-2.847 11.404z"></path>
</symbol>
<symbol id="icon-logos_microsoft" viewBox="0 0 294 64">
<path fill="#fff" style="fill: var(--color2, #fff)" opacity="0.2" d="M294.024 28.763v-5.238h-6.421v-8.142l-0.216 0.068-6.15 1.905v6.17h-9.519v-3.436c0-1.6 0.353-2.825 1.050-3.642 0.69-0.807 1.679-1.217 2.941-1.217 0.907 0 1.845 0.216 2.79 0.644l0.238 0.106v-5.516l-0.111-0.041c-0.882-0.321-2.082-0.483-3.567-0.483-1.873 0-3.575 0.413-5.059 1.231-1.484 0.819-2.653 1.989-3.471 3.476-0.815 1.485-1.228 3.201-1.228 5.1v3.778h-4.472v5.238h4.472v22.064h6.418v-22.065h9.519v14.022c0 5.775 2.69 8.702 7.992 8.702 0.872 0 1.789-0.104 2.726-0.307 0.954-0.208 1.601-0.415 1.984-0.638l0.085-0.050v-5.286l-0.262 0.175c-0.347 0.236-0.782 0.428-1.291 0.57-0.51 0.145-0.937 0.219-1.268 0.219-1.242 0-2.161-0.339-2.732-1.008-0.577-0.675-0.869-1.856-0.869-3.508v-12.89h6.421zM246.491 46.171c-2.328 0-4.166-0.783-5.46-2.324-1.303-1.549-1.963-3.758-1.963-6.564 0-2.895 0.66-5.161 1.963-6.737 1.295-1.566 3.115-2.361 5.408-2.361 2.226 0 3.999 0.759 5.266 2.257 1.275 1.507 1.923 3.755 1.923 6.683 0 2.964-0.609 5.242-1.809 6.765-1.193 1.512-2.985 2.281-5.329 2.281zM246.778 22.868c-4.445 0-7.976 1.319-10.491 3.921s-3.791 6.203-3.791 10.704c0 4.275 1.245 7.713 3.701 10.218 2.455 2.506 5.797 3.776 9.931 3.776 4.309 0 7.77-1.338 10.286-3.976 2.516-2.636 3.79-6.202 3.79-10.598 0-4.341-1.196-7.806-3.555-10.294-2.362-2.489-5.682-3.751-9.87-3.751zM222.145 22.868c-3.023 0-5.524 0.783-7.435 2.327-1.922 1.553-2.897 3.591-2.897 6.057 0 1.282 0.21 2.42 0.625 3.386 0.416 0.969 1.062 1.822 1.918 2.538 0.85 0.71 2.162 1.454 3.901 2.211 1.461 0.609 2.552 1.125 3.244 1.531 0.678 0.398 1.158 0.798 1.429 1.188 0.264 0.381 0.398 0.903 0.398 1.548 0 1.834-1.356 2.726-4.146 2.726-1.035 0-2.216-0.218-3.509-0.65-1.285-0.425-2.496-1.048-3.593-1.846l-0.267-0.193v6.259l0.097 0.047c0.908 0.425 2.054 0.782 3.403 1.064s2.571 0.426 3.634 0.426c3.281 0 5.923-0.787 7.851-2.341 1.94-1.564 2.924-3.65 2.924-6.202 0-1.84-0.53-3.418-1.573-4.691-1.036-1.263-2.834-2.422-5.344-3.446-1.998-0.812-3.278-1.486-3.806-2.004-0.509-0.5-0.768-1.207-0.768-2.103 0-0.794 0.32-1.43 0.975-1.946 0.66-0.518 1.579-0.781 2.731-0.781 1.070 0 2.164 0.171 3.252 0.506s2.043 0.785 2.84 1.334l0.262 0.181v-5.938l-0.101-0.044c-0.736-0.319-1.705-0.592-2.885-0.814-1.172-0.219-2.235-0.331-3.162-0.331zM195.081 46.17c-2.33 0-4.166-0.783-5.461-2.324-1.303-1.549-1.961-3.757-1.961-6.564 0-2.895 0.66-5.161 1.963-6.737 1.294-1.566 3.113-2.361 5.408-2.361 2.225 0 3.997 0.759 5.266 2.257 1.274 1.507 1.922 3.755 1.922 6.683 0 2.964-0.608 5.242-1.809 6.765-1.192 1.512-2.984 2.281-5.327 2.281v-0.001zM195.368 22.868c-4.446 0-7.977 1.319-10.493 3.921-2.514 2.602-3.791 6.203-3.791 10.704 0 4.276 1.246 7.713 3.701 10.218 2.456 2.506 5.798 3.776 9.932 3.776 4.308 0 7.768-1.338 10.284-3.976 2.516-2.636 3.791-6.202 3.791-10.598 0-4.341-1.196-7.806-3.557-10.294-2.362-2.489-5.682-3.751-9.868-3.751v0zM171.34 28.254v-4.729h-6.341v27.302h6.341v-13.966c0-2.375 0.532-4.326 1.58-5.8 1.036-1.456 2.415-2.193 4.101-2.193 0.571 0 1.213 0.095 1.906 0.284 0.687 0.187 1.185 0.391 1.48 0.605l0.265 0.195v-6.474l-0.102-0.045c-0.591-0.254-1.426-0.382-2.484-0.382-1.592 0-3.019 0.518-4.239 1.54-1.073 0.897-1.847 2.128-2.44 3.663h-0.067zM153.646 22.868c-2.909 0-5.504 0.632-7.711 1.877-2.212 1.248-3.921 3.031-5.085 5.297-1.159 2.261-1.746 4.901-1.746 7.846 0 2.579 0.57 4.947 1.697 7.033 1.128 2.090 2.724 3.725 4.745 4.858 2.018 1.133 4.349 1.708 6.932 1.708 3.013 0 5.586-0.611 7.648-1.813l0.084-0.049v-5.884l-0.267 0.197c-0.949 0.697-1.995 1.248-3.102 1.636-1.12 0.396-2.143 0.596-3.038 0.596-2.487 0-4.484-0.789-5.934-2.343-1.453-1.557-2.19-3.742-2.19-6.493 0-2.768 0.769-5.009 2.283-6.664 1.509-1.649 3.51-2.486 5.946-2.486 2.085 0 4.114 0.715 6.036 2.127l0.267 0.195v-6.199l-0.087-0.049c-0.722-0.41-1.708-0.748-2.933-1.005-1.218-0.256-2.411-0.385-3.544-0.385h0.001zM134.736 23.525h-6.34v27.302h6.341v-27.302l-0.001-0.001zM131.631 11.895c-1.043 0-1.953 0.36-2.701 1.073-0.751 0.716-1.132 1.616-1.132 2.678 0 1.045 0.376 1.929 1.12 2.625 0.739 0.694 1.651 1.046 2.713 1.046s1.978-0.352 2.726-1.045c0.752-0.697 1.135-1.581 1.135-2.626 0-1.026-0.372-1.917-1.104-2.65-0.731-0.731-1.658-1.101-2.757-1.101zM115.811 21.511v29.317h6.47v-38.097h-8.955l-11.383 28.297-11.047-28.297h-9.32v38.097h6.081v-29.319h0.209l11.665 29.319h4.589l11.482-29.316h0.21z"></path>
<path fill="#fff" style="fill: var(--color2, #fff)" opacity="0.2" d="M29.827 30.212h-29.827v-30.212h29.827v30.212z"></path>
<path fill="#fff" style="fill: var(--color2, #fff)" opacity="0.2" d="M62.759 30.212h-29.827v-30.212h29.827v30.212z"></path>
<path fill="#fff" style="fill: var(--color2, #fff)" opacity="0.2" d="M29.826 63.581h-29.826v-30.212h29.826v30.212z"></path>
<path fill="#fff" style="fill: var(--color2, #fff)" opacity="0.2" d="M62.759 63.581h-29.827v-30.212h29.827v30.212z"></path>
</symbol>
<symbol id="icon-logos_sketch" viewBox="0 0 72 64">
<path fill="#fdb300" style="fill: var(--color7, #fdb300)" d="M35.93 0l-20.251 2.102-15.679 20.666 35.93 41.082 35.93-41.083-15.678-20.666-20.252-2.102z"></path>
<path fill="#eb6c00" style="fill: var(--color8, #eb6c00)" d="M0 22.768l35.93 41.082-21.377-41.082h-14.553z"></path>
<path fill="#eb6c00" style="fill: var(--color8, #eb6c00)" d="M57.306 22.768l-21.376 41.082 35.93-41.082h-14.554z"></path>
<path fill="#fdad00" style="fill: var(--color9, #fdad00)" d="M14.553 22.768l21.377 41.082 21.377-41.082h-42.753z"></path>
<path fill="#fdd231" style="fill: var(--color10, #fdd231)" d="M15.678 2.102l-1.126 20.666 21.377-22.768-20.251 2.102z"></path>
<path fill="#fdd231" style="fill: var(--color10, #fdd231)" d="M57.306 22.768l-1.125-20.666-20.251-2.102 21.376 22.768z"></path>
<path fill="#fdad00" style="fill: var(--color9, #fdad00)" d="M57.306 22.768h14.553l-15.678-20.666 1.125 20.666z"></path>
<path fill="#fdad00" style="fill: var(--color9, #fdad00)" d="M0 22.768h14.553l1.125-20.666-15.679 20.666z"></path>
<path fill="#feeeb7" style="fill: var(--color11, #feeeb7)" d="M35.93 0l-21.377 22.768h42.753l-21.377-22.768z"></path>
</symbol>
<symbol id="icon-bx_bxl-facebook" viewBox="0 0 64 64">
<path fill="#fff" style="fill: var(--color2, #fff)" opacity="0.78" d="M35.725 55.992v-21.856h7.373l1.096-8.557h-8.469v-5.451c0-2.469 0.688-4.16 4.232-4.16h4.491v-7.629c-2.185-0.234-4.381-0.347-6.579-0.339-6.517 0-10.992 3.979-10.992 11.283v6.28h-7.325v8.557h7.341v21.872h8.832z"></path>
</symbol>
<symbol id="icon-bx_bxl-instagram" viewBox="0 0 64 64">
<path fill="#fff" style="fill: var(--color2, #fff)" opacity="0.78" d="M31.997 19.672c-3.27 0-6.407 1.299-8.719 3.612s-3.612 5.449-3.612 8.719c0 3.27 1.299 6.407 3.612 8.719s5.449 3.612 8.719 3.612 6.407-1.299 8.719-3.612c2.312-2.312 3.612-5.449 3.612-8.719s-1.299-6.407-3.612-8.719c-2.313-2.312-5.449-3.612-8.719-3.612zM31.997 40.011c-2.125 0-4.162-0.844-5.664-2.346s-2.346-3.54-2.346-5.665c0-2.124 0.844-4.162 2.346-5.664s3.54-2.346 5.664-2.346 4.162 0.844 5.664 2.346c1.502 1.502 2.346 3.54 2.346 5.664s-0.844 4.162-2.346 5.665c-1.502 1.502-3.54 2.346-5.664 2.346z"></path>
<path fill="#fff" style="fill: var(--color2, #fff)" opacity="0.78" d="M44.816 22.093c1.588 0 2.875-1.287 2.875-2.875s-1.287-2.875-2.875-2.875-2.875 1.287-2.875 2.875c0 1.588 1.287 2.875 2.875 2.875z"></path>
<path fill="#fff" style="fill: var(--color2, #fff)" opacity="0.78" d="M54.755 16.296c-0.617-1.594-1.561-3.042-2.77-4.25s-2.657-2.151-4.252-2.768c-1.866-0.7-3.837-1.079-5.829-1.12-2.568-0.112-3.381-0.144-9.893-0.144s-7.347 0-9.893 0.144c-1.991 0.039-3.961 0.418-5.824 1.12-1.595 0.616-3.043 1.559-4.252 2.767s-2.152 2.657-2.769 4.251c-0.701 1.866-1.078 3.837-1.117 5.829-0.115 2.565-0.149 3.379-0.149 9.893 0 6.512 0 7.341 0.149 9.893 0.040 1.995 0.416 3.963 1.117 5.832 0.618 1.594 1.562 3.042 2.772 4.25s2.658 2.151 4.252 2.769c1.86 0.729 3.83 1.134 5.827 1.2 2.568 0.112 3.381 0.147 9.893 0.147s7.347 0 9.893-0.147c1.992-0.040 3.963-0.418 5.829-1.117 1.594-0.618 3.042-1.562 4.251-2.771s2.153-2.657 2.771-4.251c0.701-1.867 1.077-3.835 1.117-5.829 0.115-2.566 0.149-3.379 0.149-9.893s0-7.341-0.149-9.893c-0.031-2.020-0.411-4.021-1.123-5.912zM51.507 41.715c-0.017 1.537-0.298 3.059-0.829 4.501-0.401 1.037-1.014 1.979-1.8 2.765s-1.728 1.398-2.766 1.798c-1.426 0.529-2.932 0.81-4.453 0.829-2.533 0.117-3.248 0.147-9.744 0.147-6.501 0-7.165 0-9.747-0.147-1.52-0.019-3.026-0.299-4.451-0.829-1.041-0.397-1.987-1.009-2.776-1.795s-1.405-1.729-1.808-2.768c-0.524-1.426-0.805-2.931-0.829-4.451-0.115-2.533-0.141-3.248-0.141-9.744 0-6.499 0-7.163 0.141-9.747 0.017-1.536 0.298-3.057 0.829-4.499 0.813-2.104 2.48-3.76 4.584-4.565 1.426-0.528 2.931-0.808 4.451-0.829 2.536-0.115 3.248-0.147 9.747-0.147s7.165 0 9.744 0.147c1.521 0.018 3.028 0.299 4.453 0.829 1.037 0.401 1.979 1.014 2.765 1.8s1.399 1.728 1.8 2.765c0.524 1.427 0.804 2.931 0.829 4.451 0.115 2.536 0.144 3.248 0.144 9.747 0 6.496 0 7.195-0.115 9.744h-0.029v-0.003z"></path>
</symbol>
<symbol id="icon-bx_bxl-twitter" viewBox="0 0 64 64">
<path fill="#fff" style="fill: var(--color2, #fff)" opacity="0.78" d="M52.355 21.326c0.035 0.467 0.035 0.931 0.035 1.395 0 14.2-10.808 30.563-30.56 30.563-6.085 0-11.739-1.763-16.496-4.824 0.864 0.099 1.696 0.133 2.595 0.133 4.835 0.012 9.532-1.605 13.336-4.589-2.242-0.041-4.415-0.78-6.215-2.115s-3.14-3.2-3.83-5.333c0.664 0.099 1.331 0.165 2.029 0.165 0.963 0 1.931-0.133 2.829-0.365-2.433-0.491-4.62-1.81-6.19-3.732s-2.426-4.328-2.423-6.81v-0.133c1.432 0.797 3.093 1.296 4.853 1.363-1.474-0.98-2.683-2.309-3.519-3.87s-1.272-3.304-1.27-5.074c0-1.995 0.531-3.824 1.461-5.419 2.699 3.32 6.065 6.036 9.881 7.973s7.995 3.049 12.268 3.268c-0.165-0.8-0.267-1.629-0.267-2.461-0.001-1.411 0.277-2.808 0.816-4.111s1.331-2.488 2.328-3.486 2.182-1.789 3.486-2.328c1.303-0.54 2.7-0.817 4.111-0.816 3.093 0 5.885 1.296 7.848 3.392 2.405-0.465 4.711-1.343 6.816-2.595-0.802 2.482-2.481 4.587-4.723 5.92 2.133-0.243 4.217-0.804 6.184-1.664-1.469 2.142-3.289 4.020-5.384 5.555z"></path>
</symbol>
<symbol id="icon-grommet-icons_figma" viewBox="0 0 64 64">
<path fill="#19bcfe" style="fill: var(--color12, #19bcfe)" opacity="0.78" d="M42.667 42.667c5.891 0 10.667-4.776 10.667-10.667s-4.776-10.667-10.667-10.667c-5.891 0-10.667 4.776-10.667 10.667s4.776 10.667 10.667 10.667z"></path>
<path fill="#09cf83" style="fill: var(--color13, #09cf83)" opacity="0.78" d="M21.333 64c2.829 0 5.542-1.124 7.543-3.124s3.124-4.714 3.124-7.542v-10.667h-10.667c-2.829 0-5.542 1.124-7.543 3.124s-3.124 4.713-3.124 7.543c0 2.829 1.124 5.542 3.124 7.543s4.713 3.124 7.543 3.124z"></path>
<path fill="#a259ff" style="fill: var(--color14, #a259ff)" opacity="0.78" d="M21.333 42.667h10.667v-21.333h-10.667c-2.829 0-5.542 1.124-7.543 3.124s-3.124 4.713-3.124 7.542c0 2.829 1.124 5.542 3.124 7.543s4.713 3.124 7.543 3.124z"></path>
<path fill="#f24e1e" style="fill: var(--color15, #f24e1e)" opacity="0.78" d="M21.333 21.333h10.667v-21.333h-10.667c-2.829 0-5.542 1.124-7.543 3.124s-3.124 4.713-3.124 7.543c0 2.829 1.124 5.542 3.124 7.542s4.713 3.124 7.543 3.124z"></path>
<path fill="#ff7262" style="fill: var(--color16, #ff7262)" opacity="0.78" d="M42.667 21.333h-10.667v-21.333h10.667c2.829 0 5.542 1.124 7.542 3.124s3.124 4.713 3.124 7.543c0 2.829-1.124 5.542-3.124 7.542s-4.713 3.124-7.542 3.124z"></path>
</symbol>
<symbol id="icon-grommet-icons_slack" viewBox="0 0 65 64">
<path fill="#e01e5a" style="fill: var(--color17, #e01e5a)" opacity="0.78" d="M13.672 40.219c0.001 0.878-0.175 1.748-0.517 2.56s-0.844 1.549-1.476 2.17c-0.633 0.621-1.384 1.113-2.211 1.449s-1.713 0.508-2.607 0.507c-0.894 0-1.78-0.172-2.606-0.508s-1.577-0.828-2.209-1.449c-0.632-0.621-1.133-1.358-1.475-2.169s-0.517-1.681-0.517-2.559c-0.001-0.878 0.175-1.748 0.517-2.559s0.843-1.549 1.476-2.17c0.632-0.621 1.383-1.113 2.21-1.449s1.712-0.508 2.606-0.508h6.811v6.685h-0.003zM17.076 40.219c-0.001-0.878 0.175-1.748 0.517-2.559s0.843-1.549 1.476-2.17c0.632-0.621 1.383-1.113 2.21-1.449s1.712-0.508 2.606-0.508c0.894-0.001 1.78 0.172 2.607 0.508s1.577 0.828 2.21 1.449c0.632 0.621 1.134 1.358 1.476 2.17s0.518 1.681 0.517 2.559v16.716c0.001 0.878-0.175 1.748-0.517 2.559s-0.843 1.549-1.476 2.17-1.383 1.113-2.21 1.449c-0.826 0.336-1.712 0.508-2.607 0.508-0.894 0.001-1.78-0.172-2.606-0.508s-1.577-0.828-2.21-1.449c-0.632-0.621-1.134-1.358-1.476-2.17s-0.517-1.681-0.517-2.559v-16.716z"></path>
<path fill="#36c5f0" style="fill: var(--color18, #36c5f0)" opacity="0.78" d="M23.885 13.374c-0.895 0.001-1.78-0.172-2.607-0.508s-1.578-0.829-2.21-1.45c-0.632-0.621-1.134-1.359-1.476-2.171s-0.517-1.682-0.516-2.56c-0.001-0.878 0.175-1.748 0.517-2.559s0.843-1.549 1.476-2.17c0.632-0.621 1.383-1.113 2.21-1.449s1.712-0.508 2.606-0.507c0.894-0.001 1.78 0.172 2.606 0.507s1.577 0.828 2.21 1.449c0.632 0.621 1.134 1.358 1.476 2.17s0.518 1.681 0.517 2.559v6.691l-6.809-0.003zM23.885 16.767c0.894-0.001 1.78 0.172 2.606 0.507s1.577 0.828 2.21 1.449c0.632 0.621 1.134 1.358 1.476 2.17s0.518 1.681 0.517 2.559c0.001 0.878-0.175 1.748-0.517 2.559s-0.843 1.549-1.476 2.17c-0.632 0.621-1.383 1.113-2.21 1.449s-1.712 0.508-2.606 0.508h-17.076c-0.894 0.001-1.78-0.172-2.606-0.507s-1.577-0.828-2.209-1.448c-0.632-0.621-1.134-1.358-1.476-2.169s-0.518-1.68-0.518-2.558c-0.001-0.878 0.175-1.748 0.517-2.559s0.843-1.549 1.476-2.17 1.383-1.113 2.21-1.449c0.826-0.336 1.712-0.508 2.606-0.508l17.076-0.003z"></path>
<path fill="#2eb67d" style="fill: var(--color19, #2eb67d)" opacity="0.78" d="M51.174 23.452c-0.001-0.878 0.175-1.748 0.517-2.56s0.844-1.549 1.477-2.17c0.633-0.621 1.384-1.113 2.211-1.449s1.713-0.508 2.607-0.507c0.894-0.001 1.78 0.172 2.606 0.507s1.577 0.828 2.21 1.449c0.632 0.621 1.134 1.358 1.476 2.17s0.518 1.681 0.517 2.559c0.001 0.878-0.175 1.748-0.517 2.559s-0.843 1.549-1.476 2.17c-0.632 0.621-1.383 1.113-2.21 1.449s-1.712 0.508-2.606 0.508h-6.811v-6.686zM47.769 23.452c0.001 0.878-0.175 1.748-0.517 2.559s-0.843 1.549-1.476 2.17c-0.632 0.621-1.383 1.113-2.21 1.449s-1.712 0.508-2.606 0.508c-0.895 0.001-1.781-0.171-2.607-0.507s-1.578-0.828-2.211-1.449c-0.633-0.621-1.134-1.358-1.477-2.17s-0.518-1.681-0.517-2.56v-16.767c-0.001-0.878 0.175-1.748 0.517-2.56s0.844-1.549 1.477-2.17c0.633-0.621 1.384-1.113 2.211-1.449s1.713-0.508 2.607-0.507c0.894-0.001 1.78 0.172 2.606 0.507s1.577 0.828 2.21 1.449c0.632 0.621 1.134 1.358 1.476 2.17s0.517 1.681 0.517 2.559v16.767z"></path>
<path fill="#ecb22e" style="fill: var(--color20, #ecb22e)" opacity="0.78" d="M40.961 50.247c0.894-0.001 1.78 0.172 2.606 0.507s1.577 0.828 2.21 1.449c0.632 0.621 1.134 1.358 1.476 2.17s0.518 1.681 0.517 2.559c0.001 0.878-0.174 1.748-0.516 2.56s-0.843 1.549-1.476 2.171c-0.633 0.621-1.383 1.114-2.21 1.45s-1.712 0.508-2.607 0.508c-0.895 0.001-1.781-0.172-2.607-0.508s-1.578-0.828-2.21-1.45c-0.632-0.621-1.134-1.359-1.476-2.171s-0.517-1.682-0.516-2.56v-6.685h6.809zM40.961 46.905c-0.894 0.001-1.78-0.172-2.606-0.507s-1.577-0.828-2.21-1.449c-0.632-0.621-1.134-1.358-1.476-2.17s-0.518-1.681-0.517-2.559c-0.001-0.878 0.175-1.748 0.517-2.559s0.843-1.549 1.476-2.17c0.632-0.621 1.383-1.113 2.21-1.449s1.712-0.508 2.606-0.508h17.076c0.894-0.001 1.78 0.172 2.606 0.508s1.577 0.828 2.21 1.449c0.632 0.621 1.134 1.358 1.476 2.17s0.517 1.681 0.517 2.559c0.001 0.878-0.175 1.748-0.517 2.559s-0.843 1.549-1.476 2.17c-0.632 0.621-1.383 1.113-2.21 1.449s-1.712 0.508-2.606 0.507h-17.076z"></path>
</symbol>
<symbol id="icon-logos_slack" viewBox="0 0 253 64">
<path fill="#fff" style="fill: var(--color2, #fff)" opacity="0.2" d="M80.962 50.159l3.161-7.303c3.416 2.536 7.953 3.855 12.44 3.855 3.314 0 5.404-1.268 5.404-3.195-0.051-5.376-19.833-1.167-19.986-14.657-0.051-6.847 6.067-12.121 14.734-12.121 5.149 0 10.299 1.268 13.969 4.158l-2.957 7.456c-3.365-2.13-7.545-3.651-11.522-3.651-2.702 0-4.486 1.268-4.486 2.891 0.051 5.275 19.986 2.384 20.189 15.266 0 6.999-5.965 11.919-14.53 11.919-6.271 0-12.032-1.471-16.417-4.615zM202.252 40.218l8.718 4.818c-3.264 5.832-9.484 9.738-16.673 9.738-10.554 0-19.119-8.52-19.119-19.019s8.566-19.019 19.119-19.019c7.138 0 13.409 3.956 16.673 9.738l-8.718 4.818c-1.58-2.739-4.537-4.615-7.954-4.615-5.047 0-9.126 4.057-9.126 9.078s4.079 9.078 9.126 9.078c3.417 0 6.374-1.877 7.953-4.615h0.001zM116.293 0.963h10.911v53.1h-10.911v-53.1zM215.252 0.963h10.911v31.191l12.338-14.657h13.358l-15.244 17.649 16.468 18.918h-13.969l-12.95-15.925v15.925h-10.911v-53.1zM159.629 40.32v-8.977c-1.58-2.637-4.843-4.666-8.513-4.666-5.048 0-9.126 4.057-9.126 9.078s4.078 9.078 9.126 9.078c3.67 0 6.933-1.927 8.513-4.514v0.001zM159.629 17.498h10.911v36.516h-10.911v-4.311c-1.784 2.992-6.22 5.072-10.859 5.072-9.586 0-17.131-8.52-17.131-19.070s7.546-18.968 17.131-18.968c4.639 0 9.075 2.079 10.859 5.072v-4.311z"></path>
<path fill="#fff" style="fill: var(--color2, #fff)" opacity="0.2" d="M13.511 40.269c0 3.702-3.008 6.695-6.73 6.695-0.884 0.001-1.76-0.172-2.576-0.508s-1.559-0.829-2.184-1.451c-0.625-0.622-1.121-1.36-1.459-2.173s-0.511-1.684-0.51-2.563c0-3.702 3.008-6.694 6.73-6.694h6.73v6.694zM16.876 40.269c0-3.702 3.008-6.694 6.73-6.694s6.73 2.992 6.73 6.694v16.736c0 3.702-3.008 6.695-6.73 6.695-0.884 0.001-1.759-0.172-2.576-0.508s-1.559-0.829-2.184-1.451c-0.625-0.622-1.121-1.36-1.459-2.173s-0.511-1.684-0.51-2.563v-16.736h-0z"></path>
<path fill="#fff" style="fill: var(--color2, #fff)" opacity="0.2" d="M23.605 13.389c-0.884 0.001-1.759-0.172-2.576-0.508s-1.559-0.829-2.184-1.451c-0.625-0.622-1.121-1.36-1.459-2.173s-0.511-1.684-0.51-2.563c-0-3.702 3.008-6.694 6.729-6.694s6.73 2.992 6.73 6.694v6.695h-6.73zM23.605 16.787c3.722 0 6.73 2.992 6.73 6.694s-3.008 6.695-6.73 6.695h-16.876c-0.884 0.001-1.76-0.172-2.576-0.508s-1.559-0.829-2.184-1.451c-0.625-0.622-1.121-1.36-1.459-2.173s-0.511-1.684-0.51-2.563c0-3.702 3.008-6.694 6.73-6.694l16.876-0z"></path>
<path fill="#fff" style="fill: var(--color2, #fff)" opacity="0.2" d="M50.576 23.482c0-3.702 3.008-6.694 6.73-6.694s6.73 2.992 6.73 6.694-3.008 6.695-6.73 6.695h-6.73v-6.695zM47.21 23.482c0 3.702-3.008 6.695-6.73 6.695-0.884 0.001-1.76-0.172-2.576-0.508s-1.559-0.829-2.184-1.451c-0.625-0.622-1.121-1.36-1.459-2.173s-0.511-1.684-0.51-2.563v-16.787c0-3.702 3.008-6.694 6.73-6.694s6.73 2.992 6.73 6.694v16.788l-0.001-0z"></path>
<path fill="#fff" style="fill: var(--color2, #fff)" opacity="0.2" d="M40.481 50.311c3.722 0 6.73 2.992 6.73 6.694s-3.008 6.695-6.73 6.695c-0.884 0.001-1.76-0.172-2.576-0.508s-1.559-0.829-2.184-1.451c-0.625-0.622-1.121-1.36-1.459-2.173s-0.511-1.683-0.51-2.563v-6.694h6.73zM40.481 46.963c-0.884 0.001-1.76-0.172-2.576-0.508s-1.559-0.829-2.184-1.451c-0.625-0.622-1.121-1.36-1.459-2.173s-0.511-1.684-0.511-2.563c0-3.702 3.008-6.694 6.73-6.694h16.876c3.722 0 6.73 2.992 6.73 6.694s-3.008 6.695-6.73 6.695l-16.876-0.001z"></path>
</symbol>
<symbol id="icon-logos_visual-studio-code" viewBox="0 0 66 64">
<path fill="#0065a9" style="fill: var(--color21, #0065a9)" opacity="0.78" d="M63.487 6.755l-13.553-6.358c-0.765-0.359-1.626-0.477-2.464-0.339s-1.61 0.528-2.211 1.113l-44.366 39.416c-1.193 1.060-1.192 2.891 0.003 3.95l3.624 3.21c0.473 0.419 1.083 0.664 1.722 0.692s1.268-0.163 1.778-0.54l53.427-39.494c1.792-1.325 4.367-0.079 4.367 2.113v-0.153c0-0.754-0.218-1.493-0.63-2.131s-1-1.151-1.697-1.478z"></path>
<path fill="#007acc" style="fill: var(--color22, #007acc)" opacity="0.78" d="M63.487 57.007l-13.553 6.358c-0.765 0.359-1.626 0.477-2.464 0.339s-1.61-0.528-2.211-1.113l-44.366-39.416c-1.193-1.060-1.192-2.891 0.003-3.949l3.624-3.21c0.473-0.419 1.083-0.664 1.722-0.692s1.268 0.163 1.778 0.54l53.427 39.493c1.792 1.325 4.367 0.079 4.367-2.113v0.154c0 0.754-0.219 1.493-0.63 2.131s-1 1.151-1.697 1.478z"></path>
<path fill="#1f9cf0" style="fill: var(--color23, #1f9cf0)" opacity="0.78" d="M49.892 63.37c-0.766 0.359-1.627 0.477-2.464 0.338s-1.61-0.528-2.211-1.113c1.517 1.478 4.111 0.431 4.111-1.66v-58.102c0-2.091-2.594-3.137-4.111-1.659 0.601-0.585 1.373-0.974 2.211-1.113s1.699-0.021 2.464 0.338l13.55 6.349c0.698 0.327 1.287 0.839 1.699 1.478s0.631 1.378 0.631 2.132v43.053c0 1.539-0.905 2.943-2.329 3.61l-13.55 6.349z"></path>
<path fill="#000" style="fill: var(--color3, #000)" opacity="0.195" d="M46.642 63.488c0.523 0.199 1.083 0.291 1.644 0.27s1.112-0.154 1.618-0.392l13.542-6.349c0.698-0.327 1.286-0.839 1.698-1.478s0.63-1.377 0.63-2.132v-43.053c0-0.754-0.218-1.493-0.63-2.132s-1-1.151-1.698-1.478l-13.542-6.35c-0.765-0.359-1.626-0.477-2.463-0.338s-1.609 0.528-2.209 1.113l-25.924 23.046-11.293-8.352c-0.509-0.377-1.138-0.568-1.777-0.54s-1.248 0.272-1.721 0.692l-3.622 3.21c-1.194 1.058-1.196 2.889-0.003 3.949l9.793 8.706-9.793 8.705c-1.192 1.060-1.191 2.891 0.003 3.95l3.622 3.21c0.473 0.419 1.082 0.664 1.721 0.692s1.268-0.163 1.777-0.54l11.293-8.353 25.924 23.046c0.401 0.391 0.881 0.697 1.41 0.898zM49.341 17.331l-19.671 14.55 19.671 14.549v-29.099z"></path>
</symbol>
<symbol id="icon-logos_wordpress" viewBox="0 0 282 64">
<path fill="#fff" style="fill: var(--color2, #fff)" opacity="0.2" d="M163.66 25.012h-11.108v1.17c3.475 0 4.033 0.739 4.033 5.112v7.884c0 4.373-0.559 5.173-4.033 5.173-2.668-0.369-4.467-1.786-6.95-4.496l-2.854-3.079c3.846-0.678 5.894-3.080 5.894-5.79 0-3.387-2.915-5.973-8.377-5.973h-10.921v1.169c3.475 0 4.033 0.739 4.033 5.112v7.884c0 4.373-0.559 5.173-4.033 5.173v1.17h12.348v-1.17c-3.474 0-4.033-0.8-4.033-5.173v-2.217h1.054l6.888 8.561h18.058c8.874 0 12.721-4.68 12.721-10.286 0-5.605-3.847-10.224-12.721-10.224zM137.66 35.051v-8.191h2.544c2.792 0 4.034 1.909 4.034 4.127 0 2.156-1.242 4.064-4.034 4.064h-2.544zM163.846 43.613h-0.435c-2.233 0-2.543-0.554-2.543-3.388v-13.365h2.977c6.454 0 7.632 4.68 7.632 8.315 0 3.757-1.178 8.438-7.632 8.438zM94.781 37.331l4.282-12.565c1.242-3.634 0.683-4.68-3.289-4.68v-1.232h11.666v1.232c-3.909 0-4.84 0.923-6.391 5.42l-7.075 21.064h-0.806l-6.33-19.279-6.454 19.279h-0.807l-6.887-21.064c-1.489-4.496-2.482-5.42-6.082-5.42v-1.232h13.776v1.232c-3.661 0-4.655 0.862-3.351 4.68l4.157 12.565 6.267-18.477h1.18l6.144 18.478zM115.878 46.322c-6.826 0-12.41-4.989-12.41-11.087 0-6.035 5.585-11.025 12.41-11.025 6.826 0 12.41 4.99 12.41 11.025 0 6.098-5.584 11.087-12.41 11.087zM115.878 26.121c-5.709 0-7.694 5.111-7.694 9.115 0 4.066 1.986 9.116 7.694 9.116 5.772 0 7.757-5.050 7.757-9.116 0-4.004-1.986-9.115-7.757-9.115z"></path>
<path fill="#fff" style="fill: var(--color2, #fff)" opacity="0.2" d="M191.708 44.29v1.232h-14.211v-1.232c4.159 0 4.903-1.047 4.903-7.207v-9.853c0-6.16-0.745-7.145-4.903-7.145v-1.232h12.845c6.391 0 9.929 3.265 9.929 7.638 0 4.25-3.537 7.575-9.929 7.575h-3.537v3.017c0 6.16 0.745 7.207 4.903 7.207zM190.342 21.070h-3.537v10.718h3.537c3.475 0 5.089-2.402 5.089-5.297 0-2.956-1.615-5.421-5.089-5.421zM242.902 39.733l-0.31 1.109c-0.559 2.032-1.242 2.772-5.648 2.772h-0.87c-3.225 0-3.785-0.739-3.785-5.112v-2.833c4.841 0 5.213 0.431 5.213 3.634h1.18v-9.178h-1.18c0 3.203-0.372 3.634-5.213 3.634v-6.898h3.412c4.407 0 5.089 0.739 5.648 2.772l0.311 1.17h0.992l-0.433-5.789h-18.246v1.17c3.475 0 4.035 0.739 4.035 5.112v7.884c0 4-0.476 5.008-3.215 5.152-2.604-0.395-4.391-1.805-6.838-4.474l-2.855-3.079c3.849-0.678 5.897-3.080 5.897-5.79 0-3.387-2.918-5.973-8.378-5.973h-10.921v1.169c3.473 0 4.033 0.739 4.033 5.112v7.884c0 4.373-0.559 5.173-4.033 5.173v1.17h12.349v-1.17c-3.475 0-4.033-0.8-4.033-5.173v-2.216h1.055l6.887 8.561h25.504l0.374-5.789-0.932-0.001zM210.013 35.051v-8.191h2.544c2.793 0 4.035 1.909 4.035 4.127 0 2.156-1.242 4.064-4.035 4.064h-2.544zM255.498 46.322c-2.481 0-4.655-1.293-5.585-2.095-0.31 0.309-0.868 1.232-0.992 2.095h-1.18v-8.499h1.242c0.496 4.064 3.35 6.467 7.012 6.467 1.985 0 3.599-1.108 3.599-2.956 0-1.601-1.427-2.833-3.971-4.003l-3.537-1.663c-2.483-1.171-4.345-3.204-4.345-5.913 0-2.956 2.793-5.481 6.64-5.481 2.049 0 3.785 0.739 4.841 1.601 0.31-0.246 0.621-0.924 0.807-1.664h1.18v7.269h-1.303c-0.436-2.895-2.048-5.297-5.337-5.297-1.738 0-3.353 0.986-3.353 2.526 0 1.601 1.305 2.463 4.284 3.818l3.411 1.663c2.98 1.416 4.159 3.696 4.159 5.543 0 3.88-3.414 6.589-7.571 6.589v-0.001zM274.611 46.322c-2.483 0-4.655-1.293-5.585-2.095-0.31 0.309-0.868 1.232-0.992 2.095h-1.178v-8.499h1.239c0.496 4.064 3.351 6.467 7.012 6.467 1.985 0 3.6-1.108 3.6-2.956 0-1.601-1.427-2.833-3.972-4.003l-3.537-1.663c-2.481-1.171-4.343-3.204-4.343-5.913 0-2.956 2.793-5.481 6.64-5.481 2.048 0 3.785 0.739 4.841 1.601 0.31-0.246 0.62-0.924 0.806-1.664h1.18v7.269h-1.303c-0.435-2.895-2.048-5.297-5.337-5.297-1.737 0-3.351 0.986-3.351 2.526 0 1.601 1.303 2.463 4.282 3.818l3.412 1.663c2.979 1.416 4.157 3.696 4.157 5.543 0 3.88-3.412 6.589-7.569 6.589v-0.001z"></path>
<path fill="#fff" style="fill: var(--color2, #fff)" opacity="0.2" d="M4.55 31.772c0 10.789 6.318 20.112 15.478 24.531l-13.101-35.624c-1.57 3.491-2.381 7.271-2.378 11.093v-0.001zM50.552 30.397c0-3.368-1.219-5.701-2.265-7.517-1.392-2.245-2.697-4.146-2.697-6.391 0-2.506 1.915-4.838 4.611-4.838 0.122 0 0.237 0.015 0.356 0.022-4.886-4.443-11.395-7.155-18.545-7.155-9.594 0-18.035 4.885-22.945 12.286 0.645 0.019 1.252 0.032 1.768 0.032 2.873 0 7.319-0.346 7.319-0.346 1.48-0.086 1.655 2.072 0.176 2.245 0 0-1.488 0.174-3.144 0.26l10.001 29.524 6.010-17.889-4.279-11.635c-1.479-0.086-2.88-0.26-2.88-0.26-1.48-0.086-1.306-2.332 0.173-2.245 0 0 4.536 0.346 7.234 0.346 2.871 0 7.319-0.346 7.319-0.346 1.481-0.087 1.655 2.071 0.176 2.245 0 0-1.491 0.174-3.143 0.26l9.924 29.3 2.739-9.086c1.187-3.769 2.091-6.477 2.091-8.811zM32.494 34.156l-8.239 23.764c2.519 0.736 5.132 1.11 7.758 1.11 3.106 0.001 6.19-0.521 9.12-1.545-0.076-0.119-0.141-0.245-0.195-0.375l-8.443-22.953zM56.11 18.695c0.118 0.868 0.185 1.8 0.185 2.803 0 2.766-0.521 5.875-2.089 9.762l-8.388 24.072c8.165-4.726 13.656-13.505 13.656-23.56 0.001-4.739-1.219-9.195-3.364-13.078zM32.013 0c-17.651 0-32.013 14.253-32.013 31.772 0 17.522 14.361 31.774 32.013 31.774s32.014-14.252 32.014-31.774c0-17.519-14.363-31.772-32.014-31.772zM32.013 62.089c-16.842 0-30.545-13.6-30.545-30.317 0-16.715 13.703-30.315 30.545-30.315s30.544 13.6 30.544 30.315c0 16.717-13.702 30.317-30.544 30.317z"></path>
</symbol>
<symbol id="icon-notion" viewBox="0 0 64 64">
<path fill="#fff" style="fill: var(--color2, #fff)" opacity="0.78" d="M11.432 58.436l-6.879-8.569c-1.655-2.062-2.553-4.597-2.553-7.207v-31.030c0-3.909 3.127-7.152 7.161-7.428l31.903-2.178c2.318-0.158 4.621 0.458 6.525 1.745l11.209 7.578c2.006 1.357 3.202 3.574 3.202 5.941v35.278c0 3.825-3.075 6.992-7.025 7.235l-35.408 2.18c-3.152 0.194-6.199-1.134-8.135-3.546z"></path>
<path fill="#000" style="fill: var(--color3, #000)" opacity="0.78" d="M22.496 27.157v-0.406c0-1.030 0.825-1.884 1.888-1.955l7.743-0.517 10.708 15.768v-13.839l-2.756-0.367v-0.193c0-1.042 0.844-1.901 1.92-1.957l7.045-0.361v1.014c0 0.476-0.354 0.883-0.839 0.965l-1.695 0.287v22.411l-2.128 0.732c-1.778 0.611-3.756-0.043-4.774-1.579l-10.395-15.686v14.972l3.2 0.612-0.045 0.297c-0.14 0.93-0.942 1.633-1.913 1.676l-7.958 0.354c-0.105-1 0.644-1.894 1.678-2.003l1.047-0.11v-19.962l-2.724-0.153z"></path>
<path fill="#000" style="fill: var(--color3, #000)" opacity="0.78" d="M41.35 5.934l-31.903 2.178c-1.911 0.13-3.392 1.667-3.392 3.518v31.030c0 1.74 0.599 3.43 1.702 4.804l6.879 8.569c1.112 1.386 2.862 2.148 4.673 2.037l35.409-2.18c1.815-0.112 3.228-1.567 3.228-3.324v-35.278c0-1.087-0.549-2.106-1.471-2.729l-11.209-7.578c-1.142-0.772-2.525-1.142-3.915-1.047zM11.029 12.114c-0.444-0.329-0.233-1.013 0.325-1.053l30.211-2.167c0.963-0.069 1.919 0.196 2.697 0.748l6.062 4.295c0.23 0.163 0.122 0.515-0.163 0.53l-31.993 1.74c-0.968 0.053-1.924-0.232-2.694-0.802l-4.445-3.291zM16.667 21.661c0-1.039 0.84-1.898 1.913-1.956l33.826-1.842c1.047-0.057 1.927 0.748 1.927 1.761v30.547c0 1.038-0.837 1.895-1.908 1.956l-33.611 1.913c-1.165 0.066-2.147-0.829-2.147-1.956v-30.422z"></path>
</symbol>
<symbol id="icon-zeplin" viewBox="0 0 81 64">
<path fill="#fdbd39" style="fill: var(--color24, #fdbd39)" d="M12.555 44.126l-4.261 1.53-0.229 12.46 14.751-5.297c-5.059-1.67-8.754-4.61-10.261-8.694z"></path>
<path fill="#f69833" style="fill: var(--color25, #f69833)" d="M14.785 30.947l-14.785 5.309 8.294 9.4 4.261-1.53c-1.502-4.072-0.576-8.676 2.23-13.179z"></path>
<path fill="#fecf33" style="fill: var(--color26, #fecf33)" d="M39.665 12.967c-18.827 6.761-30.965 20.711-27.11 31.159l68.179-24.482c-3.855-10.448-22.242-13.438-41.069-6.677z"></path>
<path fill="#ee6723" style="fill: var(--color27, #ee6723)" d="M53.624 50.803c18.827-6.761 30.988-20.649 27.11-31.159l-68.179 24.482c3.877 10.51 22.242 13.438 41.069 6.677z"></path>
<path fill="#f69833" style="fill: var(--color25, #f69833)" d="M80.734 19.644l-68.179 24.482c1.335 3.619 6.426 5.402 13.569 5.402 6.964 0 15.879-1.693 25.173-5.031 18.827-6.761 32.073-17.706 29.437-24.853z"></path>
<path fill="#fdbd39" style="fill: var(--color24, #fdbd39)" d="M67.165 14.242c-6.964 0-15.879 1.693-25.173 5.031-18.827 6.761-32.073 17.706-29.437 24.853l68.179-24.482c-1.335-3.619-6.426-5.402-13.569-5.402z"></path>
<path fill="#ee6723" style="fill: var(--color27, #ee6723)" d="M63.399 58.776h-0c-2.006 0-4.965-1.781-8.796-5.294-4.532-4.156-9.723-10.242-14.618-17.139s-8.916-13.791-11.325-19.414c-2.624-6.128-2.998-9.895-1.112-11.198 0.413-0.285 0.912-0.43 1.482-0.43 1.534 0 4.523 1.123 10.051 6.472l0.121 0.117-0.016 0.166c-0.038 0.384-0.073 0.772-0.104 1.152l-0.062 0.756-0.542-0.537c-5.956-5.898-8.578-6.535-9.429-6.535-0.243 0-0.436 0.048-0.574 0.144-0.818 0.565-0.871 3.332 1.673 9.273 2.365 5.523 6.329 12.313 11.16 19.12s9.943 12.804 14.394 16.886c4.8 4.401 6.962 4.876 7.67 4.876 0.244 0 0.443-0.051 0.59-0.153 0.863-0.596 0.864-3.561-1.973-9.954l-0.13-0.294 0.285-0.153c0.285-0.153 0.561-0.305 0.819-0.449l0.342-0.191 0.157 0.355c2.012 4.53 3.892 10.288 1.426 11.992-0.416 0.287-0.917 0.433-1.489 0.433zM63.399 58.078v0z"></path>
<path fill="#ee6723" style="fill: var(--color27, #ee6723)" d="M54.081 50.612l-0.029 0.348c-0.476 5.789-1.729 12.749-4.997 13.031-0.066 0.006-0.134 0.009-0.202 0.009-2.22 0-4.32-3.126-6.242-9.292-1.819-5.833-3.23-13.665-3.973-22.053-0.744-8.386-0.733-16.341 0.031-22.399 0.833-6.601 2.419-10.048 4.712-10.246 0.068-0.006 0.138-0.009 0.208-0.009 1.61 0 4.037 1.792 6.522 10.141l-1.622 0.308c-0.83-2.79-1.734-5.059-2.631-6.618-0.83-1.442-1.637-2.236-2.273-2.236-0.021 0-0.042 0.001-0.063 0.003-0.994 0.086-2.443 2.457-3.25 8.856-0.751 5.949-0.76 13.785-0.025 22.063 0.734 8.28 2.123 15.995 3.908 21.724 0.8 2.566 1.677 4.68 2.537 6.115 0.793 1.323 1.56 2.052 2.161 2.052 0.021 0 0.041-0.001 0.062-0.003 0.951-0.082 2.744-2.549 3.499-11.229l1.667-0.563z"></path>
</symbol>
</defs>
</svg>
